<svg width="56" height="56" viewBox="0 0 56 56" fill="none" xmlns="http://www.w3.org/2000/svg">
<g clip-path="url(#clip0_891_156)">
<path d="M16.3335 30.3333H14.0002C11.4228 30.3333 9.3335 32.4227 9.3335 35V42C9.3335 44.5773 11.4228 46.6666 14.0002 46.6666H16.3335C18.9108 46.6666 21.0002 44.5773 21.0002 42V35C21.0002 32.4227 18.9108 30.3333 16.3335 30.3333Z" stroke="black" stroke-width="2" stroke-linecap="round" stroke-linejoin="round"/>
<path d="M42 30.3333H39.6667C37.0893 30.3333 35 32.4227 35 35V42C35 44.5773 37.0893 46.6666 39.6667 46.6666H42C44.5773 46.6666 46.6667 44.5773 46.6667 42V35C46.6667 32.4227 44.5773 30.3333 42 30.3333Z" stroke="black" stroke-width="2" stroke-linecap="round" stroke-linejoin="round"/>
<path d="M9.3335 35V28C9.3335 23.0493 11.3002 18.3013 14.8008 14.8007C18.3015 11.3 23.0495 9.33331 28.0002 9.33331C32.9509 9.33331 37.6988 11.3 41.1995 14.8007C44.7002 18.3013 46.6668 23.0493 46.6668 28V35" stroke="black" stroke-width="2" stroke-linecap="round" stroke-linejoin="round"/>
</g>
<defs>
<clipPath id="clip0_891_156">
<rect width="56" height="56" fill="white"/>
</clipPath>
</defs>
</svg>
